<?xml version="1.0" standalone="no"?>
<!DOCTYPE svg PUBLIC "-//W3C//DTD SVG 20010904//EN"
 "http://www.w3.org/TR/2001/REC-SVG-20010904/DTD/svg10.dtd">
<svg version="1.0" xmlns="http://www.w3.org/2000/svg"
 width="558.000000pt" height="192.000000pt" viewBox="0 0 558.000000 192.000000"
 preserveAspectRatio="xMidYMid meet">

<g transform="translate(0.000000,192.000000) scale(0.100000,-0.100000)"
fill="#000000" stroke="none">
<path d="M1850 1295 c-17 -21 -37 -126 -29 -155 4 -14 7 -39 8 -56 1 -40 29
-64 73 -64 44 0 65 23 70 78 3 33 0 41 -10 37 -8 -3 -21 -5 -29 -5 -11 0 -14
-7 -9 -26 9 -36 -2 -64 -24 -64 -24 0 -35 37 -26 83 8 41 8 43 0 97 -5 36 -3
49 10 60 15 11 19 11 34 -3 14 -14 14 -22 5 -47 -10 -27 -9 -30 7 -30 10 0 25
-3 33 -6 13 -4 14 2 10 38 -3 24 -12 51 -21 61 -19 21 -85 23 -102 2z"/>
<path d="M2176 1297 c-38 -28 -38 -236 0 -264 25 -18 99 -16 115 3 11 13 29
94 29 129 0 35 -18 116 -29 129 -16 20 -90 21 -115 3z m71 -15 c17 -11 16
-217 -2 -232 -9 -8 -17 -7 -28 4 -10 11 -14 40 -14 113 -1 110 10 137 44 115z"/>
<path d="M2526 1297 c-38 -28 -38 -236 0 -264 25 -18 99 -16 115 3 11 13 29
94 29 129 0 35 -18 116 -29 129 -16 20 -90 21 -115 3z m71 -15 c17 -11 16
-217 -2 -232 -9 -8 -17 -7 -28 4 -11 11 -15 39 -14 108 0 112 10 141 44 120z"/>
<path d="M2848 1179 c2 -89 -1 -135 -9 -145 -9 -11 -8 -14 4 -14 9 0 19 4 22
10 4 6 13 5 25 -2 24 -16 35 -5 21 20 -6 12 -11 39 -11 62 0 39 1 41 28 38 20
-2 28 -9 30 -28 2 -14 7 -41 13 -60 8 -33 12 -36 44 -36 30 0 33 2 21 16 -7 8
-16 33 -19 55 -4 22 -14 46 -23 52 -16 12 -16 14 -1 31 9 10 20 34 23 53 4 19
13 44 20 57 8 12 10 22 5 22 -5 0 -13 -5 -16 -10 -4 -6 -15 -8 -25 -5 -13 4
-21 -2 -29 -26 -6 -18 -11 -45 -11 -60 0 -26 -4 -29 -30 -29 -28 0 -30 3 -30
34 0 19 5 47 10 62 13 32 6 42 -15 24 -12 -10 -19 -10 -27 -2 -7 7 -15 12 -18
12 -3 0 -4 -59 -2 -131z"/>
<path d="M3215 1166 c0 -136 1 -143 18 -134 12 6 22 6 30 0 9 -8 12 24 12 133
0 131 -1 142 -17 134 -10 -6 -19 -5 -23 1 -16 26 -20 -1 -20 -134z"/>
<path d="M3454 1294 c15 -40 17 -66 7 -95 -8 -23 -8 -42 0 -69 9 -28 9 -46 0
-71 -13 -37 -8 -47 14 -29 12 10 18 10 30 0 19 -16 34 -5 17 12 -13 13 -17
128 -4 128 4 0 21 -21 39 -46 26 -39 30 -50 22 -72 -12 -30 -5 -39 16 -22 12
10 18 10 30 0 21 -18 29 -6 15 20 -7 13 -9 40 -6 64 7 50 7 49 0 109 -4 31 -2
53 6 62 17 20 5 32 -15 15 -12 -10 -18 -10 -30 0 -22 18 -26 9 -13 -32 12 -39
3 -112 -12 -103 -6 3 -22 26 -36 51 -22 38 -25 49 -16 70 12 26 4 32 -16 12
-9 -9 -15 -9 -24 0 -17 17 -31 15 -24 -4z"/>
<path d="M3846 1291 c-35 -38 -38 -218 -4 -258 12 -15 66 -17 87 -4 9 6 22 6
34 -1 18 -9 19 -8 14 13 -4 13 -7 39 -7 57 0 28 -3 32 -27 32 -26 0 -28 -3
-28 -42 0 -36 -3 -43 -20 -43 -20 0 -21 3 -16 120 0 6 -2 31 -5 56 -4 34 -2
48 10 58 13 11 19 11 32 0 15 -12 15 -23 -2 -63 -6 -16 -4 -18 14 -14 12 4 25
2 28 -3 3 -5 9 -9 14 -9 13 0 -1 83 -18 103 -21 23 -84 23 -106 -2z"/>
<path d="M4358 1302 c-19 -2 -28 -9 -28 -21 0 -12 8 -17 28 -16 22 0 28 -5 30
-27 2 -15 -1 -36 -7 -46 -7 -13 -7 -30 1 -55 8 -28 8 -47 0 -74 -13 -42 -9
-51 13 -33 12 10 18 10 30 0 21 -18 29 -6 15 20 -7 13 -9 40 -6 64 3 22 6 46
5 51 0 6 -1 30 -2 55 -2 42 0 45 23 45 34 -1 36 34 3 36 -62 4 -80 4 -105 1z"/>
<path d="M4645 1166 c0 -136 1 -143 18 -134 12 6 22 6 30 0 9 -8 12 24 12 133
0 131 -1 142 -17 134 -10 -6 -19 -5 -23 1 -16 26 -20 -1 -20 -134z"/>
<path d="M4885 1166 c0 -124 2 -143 15 -136 8 5 22 4 31 0 14 -8 15 0 12 73
-4 76 -3 81 12 62 9 -11 18 -30 22 -42 8 -34 30 -28 43 12 20 61 33 42 28 -40
-4 -60 -2 -73 8 -64 9 7 19 7 35 -1 19 -11 21 -10 15 5 -15 40 -17 65 -8 99 7
24 7 47 0 70 -8 24 -7 43 1 67 12 35 7 49 -11 31 -8 -8 -17 -8 -31 0 -18 9
-19 8 -13 -16 4 -18 -1 -41 -19 -76 -14 -27 -27 -50 -30 -50 -3 0 -16 23 -30
50 -18 35 -23 58 -19 76 6 24 5 25 -14 15 -14 -7 -23 -8 -27 -1 -16 26 -20 -1
-20 -134z"/>
<path d="M5279 1291 c6 -10 9 -75 8 -144 -2 -116 -1 -124 16 -116 11 6 24 6
37 -1 14 -8 26 -8 41 0 15 8 24 8 33 1 11 -9 13 -3 12 28 0 32 -5 40 -22 44
-19 3 -22 0 -21 -22 2 -20 -3 -27 -21 -29 -22 -3 -23 -1 -20 45 3 44 5 48 31
51 15 2 27 9 27 17 0 8 -12 15 -27 17 -26 3 -28 7 -31 51 -3 46 -2 48 20 45
16 -2 22 -9 21 -23 -1 -15 4 -20 21 -20 20 0 23 5 23 38 0 29 -3 35 -12 27 -9
-7 -21 -7 -39 1 -20 9 -29 9 -41 -1 -12 -10 -19 -10 -27 -2 -20 20 -40 15 -29
-7z"/>
<path d="M2576 827 c-15 -11 -18 -27 -18 -79 0 -73 5 -88 30 -88 11 0 13 3 5
8 -7 4 -12 35 -12 80 0 57 3 74 15 79 9 3 20 0 24 -7 11 -18 9 -133 -3 -147
-6 -9 -6 -13 1 -13 22 0 34 32 33 92 0 48 -4 66 -17 75 -23 16 -36 16 -58 0z"/>
<path d="M2826 827 c-13 -10 -17 -27 -17 -77 -1 -53 3 -67 20 -81 48 -39 87 9
77 96 -8 66 -40 92 -80 62z m51 -79 c2 -59 -1 -77 -12 -82 -8 -3 -18 0 -22 7
-10 17 -11 119 -1 140 19 37 33 11 35 -65z"/>
<path d="M3735 826 c-14 -10 -20 -28 -21 -67 -1 -30 2 -64 6 -75 19 -50 87
-27 90 31 3 50 0 89 -8 101 -12 20 -47 25 -67 10z m42 -8 c5 -7 9 -42 9 -78
-1 -59 -3 -65 -23 -68 -22 -3 -23 0 -23 71 0 40 3 77 7 80 10 10 19 8 30 -5z"/>
<path d="M2325 820 c-9 -15 -10 -111 -1 -137 14 -43 21 -23 21 62 0 80 -5 99
-20 75z"/>
<path d="M2378 800 c2 -16 9 -30 14 -30 13 0 6 53 -8 57 -7 2 -9 -8 -6 -27z"/>
<path d="M3065 745 c0 -65 3 -81 15 -81 11 0 14 9 12 38 -4 33 -1 38 16 38 15
0 22 -10 29 -37 5 -21 13 -36 18 -33 11 6 7 50 -7 67 -9 11 -7 17 21 71 9 18
9 22 -4 22 -16 0 -19 -5 -29 -52 -5 -20 -13 -28 -27 -28 -18 0 -21 5 -17 38 2
29 -1 38 -12 38 -12 0 -15 -16 -15 -81z"/>
<path d="M3492 748 c0 -56 4 -78 13 -78 7 0 11 10 10 24 -3 27 4 41 25 49 13
4 12 6 -1 6 -20 1 -32 50 -17 68 7 9 4 11 -10 10 -19 -1 -20 -8 -20 -79z"/>
<path d="M3547 813 c3 -7 6 -13 8 -13 2 0 5 6 8 13 3 8 -1 14 -8 14 -7 0 -11
-6 -8 -14z"/>
<path d="M3965 747 c0 -67 3 -83 15 -83 12 0 14 14 12 75 -3 53 0 76 10 82 9
6 6 9 -12 9 -25 0 -25 -1 -25 -83z"/>
<path d="M4030 801 c4 -15 4 -34 -1 -42 -4 -7 -4 -18 1 -24 4 -5 10 -23 12
-39 1 -16 8 -31 14 -33 12 -4 6 64 -7 72 -4 3 -4 17 2 32 11 30 3 63 -16 63
-10 0 -12 -7 -5 -29z"/>
<path d="M4377 781 c1 -25 2 -61 2 -78 1 -42 21 -44 21 -3 0 22 6 33 22 39
l22 8 -22 5 c-17 5 -22 14 -22 36 0 17 6 32 13 35 6 2 1 4 -13 4 -23 1 -25 -3
-23 -46z"/>
<path d="M4440 815 c0 -8 5 -15 10 -15 6 0 10 7 10 15 0 8 -4 15 -10 15 -5 0
-10 -7 -10 -15z"/>
<path d="M4644 799 c-1 -15 3 -27 9 -26 11 2 27 -44 29 -83 1 -18 7 -26 20
-26 13 0 17 5 12 16 -9 21 -26 100 -28 126 -1 14 -8 21 -21 21 -15 0 -20 -7
-21 -28z"/>
<path d="M4867 820 c21 -8 22 -15 19 -84 -2 -58 0 -73 11 -69 9 4 13 26 13 74
0 54 4 70 18 78 13 8 6 10 -33 10 -39 0 -45 -2 -28 -9z"/>
<path d="M4627 743 c-14 -50 -17 -73 -9 -73 5 0 9 6 9 13 0 6 3 27 7 45 8 33
1 46 -7 15z"/>
<path d="M2378 690 c-3 -19 -1 -29 6 -27 14 4 21 57 8 57 -5 0 -12 -14 -14
-30z"/>
<path d="M4440 685 c0 -8 5 -15 10 -15 6 0 10 7 10 15 0 8 -4 15 -10 15 -5 0
-10 -7 -10 -15z"/>
</g>
</svg>
